<svg width="56" height="60" viewBox="0 0 56 60" fill="none" xmlns="http://www.w3.org/2000/svg">
<g clip-path="url(#clip0_1483_953)" filter="url(#filter0_d_1483_953)">
<path d="M40.3842 22.1811L47.6758 29.4727C48.8591 30.6402 49.7997 32.0302 50.4435 33.5626C51.0873 35.0951 51.4216 36.7398 51.4272 38.402C51.4327 40.0642 51.1094 41.7111 50.4759 43.2479C49.8424 44.7846 48.9111 46.1809 47.7358 47.3562C46.5604 48.5316 45.1641 49.4628 43.6274 50.0964C42.0906 50.7299 40.4438 51.0532 38.7816 51.0476C37.1194 51.042 35.4747 50.7077 33.9422 50.0639C32.4097 49.4201 31.0197 48.4795 29.8523 47.2963L27.4233 44.8673C27.0948 44.5504 26.8328 44.1712 26.6524 43.7519C26.4721 43.3326 26.3771 42.8816 26.3729 42.4252C26.3687 41.9688 26.4555 41.5162 26.6281 41.0937C26.8007 40.6711 27.0558 40.2873 27.3784 39.9644C27.7009 39.6415 28.0846 39.3861 28.5069 39.213C28.9293 39.04 29.3819 38.9528 29.8383 38.9566C30.2947 38.9603 30.7458 39.0549 31.1652 39.2349C31.5847 39.4148 31.9641 39.6765 32.2813 40.0046L34.7149 42.436C35.791 43.5024 37.2458 44.0991 38.7608 44.0956C40.2759 44.0921 41.7278 43.4886 42.7989 42.4171C43.8701 41.3457 44.4732 39.8936 44.4763 38.3785C44.4794 36.8635 43.8822 35.4089 42.8155 34.3331L35.5238 27.0414C34.7357 26.253 33.7347 25.7116 32.6434 25.4836C31.5521 25.2557 30.4181 25.3511 29.3802 25.7582C29.009 25.9048 28.6653 26.0561 28.3399 26.2073L27.2766 26.7046C25.8558 27.3462 24.7628 27.6212 23.3718 26.2325C21.3736 24.2343 21.8915 22.3896 24.3274 20.7099C26.7542 19.0411 29.6887 18.2745 32.6217 18.5432C35.5547 18.812 38.301 20.099 40.3842 22.1811ZM26.6121 8.40894L29.0411 10.838C29.6675 11.486 30.0144 12.3541 30.007 13.2553C29.9996 14.1566 29.6385 15.0189 29.0015 15.6565C28.3645 16.2941 27.5025 16.656 26.6013 16.6642C25.7 16.6725 24.8316 16.3264 24.183 15.7006L21.7517 13.2716C21.2234 12.7243 20.5914 12.2877 19.8925 11.9872C19.1937 11.6868 18.442 11.5285 17.6813 11.5217C16.9206 11.5149 16.1662 11.6596 15.4621 11.9475C14.7579 12.2353 14.1182 12.6605 13.5801 13.1983C13.0421 13.736 12.6165 14.3755 12.3283 15.0795C12.04 15.7835 11.8949 16.5378 11.9013 17.2985C11.9077 18.0591 12.0655 18.8109 12.3655 19.5099C12.6656 20.209 13.1018 20.8412 13.6488 21.3699L20.9405 28.6615C21.7286 29.45 22.7297 29.9914 23.8209 30.2193C24.9122 30.4473 26.0463 30.3519 27.0841 29.9448C27.4553 29.7981 27.7991 29.6469 28.1245 29.4957L29.1877 28.9984C30.6085 28.3568 31.7038 28.0818 33.0925 29.4704C35.0907 31.4687 34.5728 33.3134 32.1369 34.993C29.7101 36.6619 26.7756 37.4285 23.8426 37.1597C20.9097 36.891 18.1633 35.6039 16.0802 33.5219L8.78849 26.2302C7.60527 25.0628 6.66468 23.6728 6.02087 22.1403C5.37706 20.6078 5.04275 18.9631 5.03718 17.3009C5.03161 15.6387 5.3549 13.9918 5.98843 12.4551C6.62196 10.9184 7.55321 9.5221 8.72857 8.34674C9.90394 7.17137 11.3002 6.24012 12.8369 5.60659C14.3737 4.97306 16.0206 4.64978 17.6828 4.65534C19.345 4.66091 20.9897 4.99523 22.5221 5.63904C24.0546 6.28285 25.4446 7.22573 26.6121 8.40894Z" fill="white"/>
</g>
<defs>
<filter id="filter0_d_1483_953" x="-3.2666" y="0.358398" width="62.9971" height="62.9971" filterUnits="userSpaceOnUse" color-interpolation-filters="sRGB">
<feFlood flood-opacity="0" result="BackgroundImageFix"/>
<feColorMatrix in="SourceAlpha" type="matrix" values="0 0 0 0 0 0 0 0 0 0 0 0 0 0 0 0 0 0 127 0" result="hardAlpha"/>
<feOffset dy="4"/>
<feGaussianBlur stdDeviation="2"/>
<feComposite in2="hardAlpha" operator="out"/>
<feColorMatrix type="matrix" values="0 0 0 0 0 0 0 0 0 0 0 0 0 0 0 0 0 0 0.25 0"/>
<feBlend mode="normal" in2="BackgroundImageFix" result="effect1_dropShadow_1483_953"/>
<feBlend mode="normal" in="SourceGraphic" in2="effect1_dropShadow_1483_953" result="shape"/>
</filter>
<clipPath id="clip0_1483_953">
<rect width="54.9969" height="54.9969" fill="white" transform="translate(0.733398 0.358398)"/>
</clipPath>
</defs>
</svg>
