<svg width="25" height="25" viewBox="0 0 25 25" fill="none" xmlns="http://www.w3.org/2000/svg">
<path d="M13.8217 3.82196C14.1342 3.50951 14.5581 3.33398 15 3.33398C15.4419 3.33398 15.8658 3.50951 16.1783 3.82196L23.6783 11.322C23.9908 11.6345 24.1663 12.0584 24.1663 12.5003C24.1663 12.9422 23.9908 13.3661 23.6783 13.6786L16.1783 21.1786C15.864 21.4822 15.443 21.6502 15.006 21.6464C14.569 21.6426 14.151 21.4673 13.842 21.1583C13.533 20.8493 13.3577 20.4313 13.3539 19.9943C13.3501 19.5573 13.5181 19.1363 13.8217 18.822L18.3333 14.167H2.49999C2.05797 14.167 1.63404 13.9914 1.32148 13.6788C1.00892 13.3662 0.833328 12.9423 0.833328 12.5003C0.833328 12.0583 1.00892 11.6343 1.32148 11.3218C1.63404 11.0092 2.05797 10.8336 2.49999 10.8336H18.3333L13.8217 6.17863C13.5092 5.86608 13.3337 5.44224 13.3337 5.00029C13.3337 4.55835 13.5092 4.13451 13.8217 3.82196Z" fill="white"/>
</svg>
