<svg width="55" height="55" viewBox="0 0 55 55" fill="none" xmlns="http://www.w3.org/2000/svg">
<path d="M27.5971 20.9111L23.8723 24.2531C24.3646 25.9384 25.0524 27.5604 25.9216 29.0859C26.8282 30.6003 27.9207 31.9954 29.1735 33.2387L33.9974 31.7523C36.6998 30.9191 39.65 31.7749 41.4471 33.9143L44.1945 37.1842C45.3069 38.4969 45.8646 40.1911 45.7494 41.9079C45.6343 43.6247 44.8553 45.2292 43.5775 46.3815C39.096 50.4712 32.1957 51.8539 27.0296 47.7958C22.4871 44.2229 18.645 39.8402 15.6974 34.8691C12.7423 29.9225 10.7638 24.4549 9.86915 18.7626C8.87826 12.3579 13.567 7.23227 19.4132 5.48469C22.8994 4.43975 26.6197 6.23237 27.8989 9.57438L29.4077 13.5154C30.3986 16.1098 29.687 19.0374 27.5971 20.9111Z" fill="white"/>
</svg>
