<svg width="52" height="52" viewBox="0 0 52 52" fill="none" xmlns="http://www.w3.org/2000/svg">
<path fill-rule="evenodd" clip-rule="evenodd" d="M26.0687 7.03809C20.9761 7.03809 16.0922 9.06109 12.4912 12.6621C8.8902 16.2631 6.86719 21.147 6.86719 26.2396C6.86719 31.3321 8.8902 36.2161 12.4912 39.8171C16.0922 43.4181 20.9761 45.4411 26.0687 45.4411H35.6694C38.6521 45.4411 40.1434 45.4411 41.3189 44.9546C42.0957 44.633 42.8015 44.1614 43.396 43.5669C43.9905 42.9724 44.4621 42.2666 44.7837 41.4898C45.2702 40.3143 45.2702 38.823 45.2702 35.8403V26.2396C45.2702 21.147 43.2472 16.2631 39.6462 12.6621C36.0452 9.06109 31.1612 7.03809 26.0687 7.03809ZM17.5347 24.1061C17.5347 23.5402 17.7595 22.9976 18.1596 22.5975C18.5597 22.1974 19.1023 21.9726 19.6682 21.9726H32.4692C33.035 21.9726 33.5777 22.1974 33.9778 22.5975C34.3779 22.9976 34.6027 23.5402 34.6027 24.1061C34.6027 24.6719 34.3779 25.2146 33.9778 25.6147C33.5777 26.0148 33.035 26.2396 32.4692 26.2396H19.6682C19.1023 26.2396 18.5597 26.0148 18.1596 25.6147C17.7595 25.2146 17.5347 24.6719 17.5347 24.1061ZM23.9352 32.6401C23.9352 32.0742 24.16 31.5316 24.5601 31.1315C24.9602 30.7314 25.5028 30.5066 26.0687 30.5066H32.4692C33.035 30.5066 33.5777 30.7314 33.9778 31.1315C34.3779 31.5316 34.6027 32.0742 34.6027 32.6401C34.6027 33.2059 34.3779 33.7486 33.9778 34.1487C33.5777 34.5488 33.035 34.7736 32.4692 34.7736H26.0687C25.5028 34.7736 24.9602 34.5488 24.5601 34.1487C24.16 33.7486 23.9352 33.2059 23.9352 32.6401Z" fill="white"/>
</svg>
