<svg width="63" height="64" viewBox="0 0 63 64" fill="none" xmlns="http://www.w3.org/2000/svg">
<path d="M29.0959 37.0735H23.8807C23.8807 30.8493 26.3533 24.88 30.7545 20.4788C35.1557 16.0776 41.125 13.6051 47.3492 13.6051V18.8203C37.2578 18.8203 29.0959 26.9821 29.0959 37.0735ZM47.3492 29.2507V24.0355C40.1522 24.0355 34.3112 29.8765 34.3112 37.0735H39.5264C39.5264 32.7449 43.0206 29.2507 47.3492 29.2507ZM18.6655 10.9974C18.6655 8.103 16.3447 5.78223 13.4503 5.78223C10.5558 5.78223 8.23505 8.103 8.23505 10.9974C8.23505 13.8919 10.5558 16.2127 13.4503 16.2127C16.3447 16.2127 18.6655 13.8919 18.6655 10.9974ZM30.2694 12.3013H25.0541C24.7515 14.1228 23.8123 15.7778 22.4036 16.9716C20.9949 18.1654 19.2082 18.8205 17.3617 18.8203H9.53886C7.37454 18.8203 5.62744 20.5674 5.62744 22.7317V29.2507H21.2731V23.3575C23.6891 22.5956 25.8289 21.1423 27.4277 19.1773C29.0266 17.2123 30.0146 14.8217 30.2694 12.3013ZM49.9568 44.8964C52.8513 44.8964 55.172 42.5756 55.172 39.6812C55.172 36.7867 52.8513 34.4659 49.9568 34.4659C47.0624 34.4659 44.7416 36.7867 44.7416 39.6812C44.7416 42.5756 47.0624 44.8964 49.9568 44.8964ZM53.8682 47.504H46.0454C44.1989 47.5042 42.4122 46.8491 41.0035 45.6553C39.5948 44.4615 38.6556 42.8065 38.3529 40.985H33.1377C33.3925 43.5054 34.3804 45.896 35.9793 47.861C37.5782 49.826 39.718 51.2793 42.134 52.0412V57.9344H57.7796V51.4154C57.7796 49.2511 56.0325 47.504 53.8682 47.504Z" fill="white"/>
</svg>
