<svg width="53" height="53" viewBox="0 0 53 53" fill="none" xmlns="http://www.w3.org/2000/svg">
<g clip-path="url(#clip0_1483_961)">
<path d="M44.0564 39.7512C46.4467 39.7512 48.3806 37.7955 48.3806 35.4052L48.4024 13.6751C48.4024 12.5225 47.9445 11.4171 47.1295 10.602C46.3144 9.78698 45.209 9.3291 44.0564 9.3291H9.28822C6.87618 9.3291 4.94221 11.2631 4.94221 13.6751V35.4052C4.94221 36.5578 5.40009 37.6633 6.21513 38.4783C7.03016 39.2933 8.13559 39.7512 9.28822 39.7512H0.596191V44.0972H52.7484V39.7512H44.0564ZM28.8453 32.0805V27.3216C22.8043 27.3216 18.8277 29.1687 15.8072 33.2322C17.0241 27.4303 20.3923 21.6501 28.8453 20.4766V15.8481L37.5373 23.9534L28.8453 32.0805Z" fill="white"/>
</g>
<defs>
<clipPath id="clip0_1483_961">
<rect width="52.1522" height="52.1522" fill="white" transform="translate(0.596191 0.636719)"/>
</clipPath>
</defs>
</svg>
