<svg width="49" height="49" viewBox="0 0 49 49" fill="none" xmlns="http://www.w3.org/2000/svg">
<g clip-path="url(#clip0_1483_957)">
<path d="M16.1389 11.3125C4.97904 11.3125 0.329102 12.8247 0.329102 14.0448V34.5622C0.329102 35.7544 4.97904 37.3521 16.1389 37.3521C27.2987 37.3521 31.9487 35.84 31.9487 34.6198V14.1025C31.9487 12.9102 27.2987 11.3125 16.1389 11.3125ZM47.5259 11.3702C47.2133 11.3826 46.9107 11.4839 46.6536 11.6622L34.5638 19.4499C34.0988 19.7996 33.8086 20.3762 33.8086 20.962V27.7026C33.8086 28.2885 34.0988 28.8632 34.5638 29.2147L46.6536 37.0043C46.981 37.2517 48.5731 38.0273 48.5731 35.4922V13.1725C48.5731 11.7087 48.069 11.3478 47.5259 11.3702Z" fill="white"/>
</g>
<defs>
<clipPath id="clip0_1483_957">
<rect width="48.3593" height="48.3593" fill="white" transform="translate(0.329102 0.152344)"/>
</clipPath>
</defs>
</svg>
