<svg width="9" height="9" viewBox="0 0 9 9" fill="none" xmlns="http://www.w3.org/2000/svg">
<g clip-path="url(#clip0_2296_2243)">
<path d="M5.81342 0.708984H4.4483C3.8299 0.708984 3.33981 0.708984 2.95664 0.760868C2.5619 0.814155 2.24253 0.926337 1.99082 1.1791C1.73876 1.43186 1.62693 1.75263 1.57399 2.14877C1.52246 2.53369 1.52246 3.02554 1.52246 3.6464V5.69301C1.52246 6.22167 1.84498 6.67461 2.30318 6.86461C2.27969 6.5456 2.27969 6.09862 2.27969 5.72632V3.96997C2.27969 3.52089 2.27969 3.13351 2.32106 2.82361C2.36558 2.49127 2.46584 2.17296 2.72316 1.91459C2.98047 1.65622 3.29774 1.55561 3.62868 1.51073C3.93718 1.46937 4.3228 1.46937 4.77048 1.46937H5.84672C6.29405 1.46937 6.67897 1.46937 6.98782 1.51073C6.89527 1.27458 6.73372 1.07179 6.52424 0.928776C6.31476 0.785766 6.06706 0.709175 5.81342 0.708984Z" fill="#3E3D3D"/>
<path d="M2.78516 4.0039C2.78516 3.04825 2.78516 2.57043 3.08104 2.27349C3.37656 1.97656 3.85229 1.97656 4.80443 1.97656H5.81407C6.76586 1.97656 7.24193 1.97656 7.53781 2.27349C7.83334 2.57043 7.83334 3.04825 7.83334 4.0039V5.69364C7.83334 6.64929 7.83334 7.12711 7.53781 7.42404C7.24193 7.72097 6.76586 7.72097 5.81407 7.72097H4.80443C3.85264 7.72097 3.37656 7.72097 3.08104 7.42404C2.78516 7.12711 2.78516 6.64929 2.78516 5.69364V4.0039Z" fill="#3E3D3D"/>
</g>
<defs>
<clipPath id="clip0_2296_2243">
<rect width="8.41364" height="8.41364" fill="white" transform="translate(0.47168 0.00878906)"/>
</clipPath>
</defs>
</svg>
