<svg width="32" height="33" viewBox="0 0 32 33" fill="none" xmlns="http://www.w3.org/2000/svg">
<path d="M16.2053 4.89062C9.73345 4.89062 4.28467 10.0912 4.28467 16.5039V28.5296L16.2026 28.5165C22.6745 28.5165 27.9236 23.1189 27.9236 16.7062C27.9236 10.2921 22.6705 4.89062 16.2053 4.89062ZM21.3533 21.778C20.303 22.7737 18.9809 23.4354 17.5544 23.6792C16.1279 23.9231 14.6611 23.7381 13.3397 23.1478L8.61848 24.205L9.93307 20.013C9.33331 18.9185 9.03102 17.6858 9.05637 16.438C9.08172 15.1902 9.43381 13.9709 10.0775 12.9016C10.7271 11.8275 11.643 10.9394 12.7366 10.3232C13.8301 9.70707 15.0643 9.38378 16.3195 9.38465L16.3274 9.38597C17.7722 9.38337 19.185 9.81153 20.3852 10.6158C21.5855 11.42 22.5188 12.5638 23.0658 13.901C23.6061 15.2338 23.7316 16.6987 23.4261 18.104C23.1206 19.5093 22.3982 20.7898 21.3533 21.778Z" fill="#004DFF"/>
</svg>
