<svg width="32" height="33" viewBox="0 0 32 33" fill="none" xmlns="http://www.w3.org/2000/svg">
<path d="M25.6519 7.71937C23.9052 6.90514 22.0141 6.31417 20.0442 5.97272C20.0269 5.97216 20.0097 5.97541 19.9939 5.98221C19.978 5.98902 19.9638 5.99923 19.9523 6.01212C19.7159 6.4455 19.4401 7.0102 19.2562 7.44359C17.1668 7.1284 15.0419 7.1284 12.9525 7.44359C12.7686 6.99707 12.4929 6.4455 12.2433 6.01212C12.2302 5.98585 12.1908 5.97272 12.1514 5.97272C10.1815 6.31417 8.30351 6.90514 6.54372 7.71937C6.53059 7.71937 6.51745 7.73251 6.50432 7.74564C2.93221 13.0907 1.94725 18.2912 2.43317 23.4393C2.43317 23.4655 2.4463 23.4918 2.47256 23.5049C4.83646 25.2385 7.10843 26.2891 9.35413 26.9851C9.39353 26.9983 9.43292 26.9851 9.44606 26.9589C9.97137 26.2366 10.4441 25.4749 10.8513 24.6738C10.8775 24.6212 10.8513 24.5687 10.7987 24.5556C10.0502 24.2666 9.341 23.9252 8.64496 23.5312C8.59243 23.5049 8.59243 23.4261 8.63183 23.3867C8.77629 23.2817 8.92075 23.1635 9.06521 23.0584C9.09147 23.0322 9.13087 23.0322 9.15714 23.0453C13.6748 25.1071 18.5471 25.1071 23.0122 23.0453C23.0385 23.0322 23.0779 23.0322 23.1041 23.0584C23.2486 23.1766 23.393 23.2817 23.5375 23.3999C23.59 23.4393 23.59 23.5181 23.5244 23.5443C22.8415 23.9515 22.1192 24.2798 21.3706 24.5687C21.3181 24.5818 21.3049 24.6475 21.3181 24.6869C21.7383 25.488 22.2111 26.2497 22.7233 26.972C22.7627 26.9851 22.8021 26.9983 22.8415 26.9851C25.1003 26.2891 27.3723 25.2385 29.7362 23.5049C29.7624 23.4918 29.7756 23.4655 29.7756 23.4393C30.3534 17.4901 28.8169 12.329 25.7044 7.74564C25.6913 7.73251 25.6781 7.71937 25.6519 7.71937ZM11.5342 20.3006C10.1815 20.3006 9.05207 19.0529 9.05207 17.5164C9.05207 15.9799 10.1552 14.7323 11.5342 14.7323C12.9262 14.7323 14.0294 15.993 14.0163 17.5164C14.0163 19.0529 12.9131 20.3006 11.5342 20.3006ZM20.6877 20.3006C19.335 20.3006 18.2056 19.0529 18.2056 17.5164C18.2056 15.9799 19.3088 14.7323 20.6877 14.7323C22.0798 14.7323 23.1829 15.993 23.1698 17.5164C23.1698 19.0529 22.0798 20.3006 20.6877 20.3006Z" fill="#004DFF"/>
</svg>
