<svg width="29" height="29" viewBox="0 0 29 29" fill="none" xmlns="http://www.w3.org/2000/svg">
<g clip-path="url(#clip0_2296_1994)">
<path d="M18.061 4.31927C15.7582 3.78417 13.3634 3.78417 11.0606 4.31927C9.73056 3.50355 8.71516 3.12866 7.97668 2.97041C7.66149 2.89928 7.33898 2.86576 7.0159 2.87057C6.8689 2.87455 6.72258 2.89221 6.57885 2.92332L6.56001 2.92709L6.55247 2.93085H6.54682L6.80491 3.837L6.54682 2.93274C6.41447 2.97014 6.29192 3.03607 6.18777 3.12589C6.08363 3.21572 6.00041 3.32726 5.94398 3.45269C5.38819 4.69737 5.2823 6.09654 5.64445 7.4107C4.70653 8.54735 4.19542 9.97607 4.19952 11.4497C4.19952 14.3754 5.06233 16.3421 6.53363 17.6062C7.56411 18.4916 8.815 18.9626 10.0697 19.232C9.87222 19.8119 9.79779 20.4265 9.85113 21.0367V22.1633C9.08439 22.3234 8.55314 22.2726 8.17449 22.1482C7.70163 21.9919 7.33805 21.6773 6.98953 21.2251C6.80734 20.9814 6.63758 20.7286 6.48088 20.4678L6.3735 20.2926C6.23791 20.0671 6.09721 19.8448 5.95152 19.6257C5.59358 19.0963 5.06233 18.4332 4.20329 18.2072L3.29149 17.9679L2.81299 19.7915L3.72478 20.0307C3.87549 20.0684 4.07141 20.2097 4.39356 20.6826C4.51755 20.8692 4.6369 21.0589 4.75149 21.2515L4.87959 21.4587C5.05668 21.7451 5.26014 22.0616 5.49562 22.3705C5.97224 22.9922 6.62218 23.6195 7.58672 23.9379C8.24607 24.1564 8.99585 24.2092 9.85113 24.0773V27.5945C9.85113 27.8443 9.95037 28.0839 10.127 28.2605C10.3037 28.4372 10.5432 28.5364 10.7931 28.5364H18.3285C18.5784 28.5364 18.818 28.4372 18.9946 28.2605C19.1712 28.0839 19.2705 27.8443 19.2705 27.5945V20.8841C19.2705 20.2888 19.2441 19.7444 19.0764 19.2376C20.3255 18.9739 21.5669 18.5029 22.5917 17.6175C24.0612 16.344 24.9221 14.3584 24.9221 11.4158V11.4139C24.9174 9.95234 24.4061 8.53761 23.4753 7.4107C23.837 6.09713 23.7311 4.69871 23.1757 3.45457C23.1197 3.329 23.0369 3.21721 22.9331 3.12706C22.8293 3.03691 22.707 2.97058 22.5748 2.93274L22.3167 3.837C22.5748 2.93274 22.5729 2.93274 22.571 2.93274L22.5673 2.93085L22.5597 2.92709L22.5428 2.92332C22.4962 2.91122 22.4491 2.90178 22.4015 2.89506C22.3029 2.88066 22.2035 2.87248 22.1038 2.87057C21.7808 2.8658 21.4582 2.89931 21.1431 2.97041C20.4065 3.12866 19.3911 3.50355 18.061 4.31927Z" fill="#004DFF"/>
</g>
<defs>
<clipPath id="clip0_2296_1994">
<rect width="28.2581" height="28.2581" fill="white" transform="translate(0.431641 0.27832)"/>
</clipPath>
</defs>
</svg>
